<?xml version="1.0" encoding="UTF-8"?>
<svg id="Layer_2" data-name="Layer 2" xmlns="http://www.w3.org/2000/svg" viewBox="0 0 735.67 598.36">
  <defs>
    <style>
      .cls-1 {
        fill: #508ef5;
      }

      .cls-2 {
        fill: #f8fcff;
      }
    </style>
  </defs>
  <g id="Layer_1-2" data-name="Layer 1">
    <g>
      <path class="cls-1" d="m316.54,509.37c-75.34-41.01-127.73-106.48-150.62-178.12,25.34,30.53,58.32,57.97,97.59,79.32,127.59,69.44,273.09,48.48,324.94-46.81,51.85-95.28-9.52-228.8-137.11-298.25-49.86-27.12-102.46-40.48-151.18-40.94,80.78-36.14,182.03-33.55,271.88,15.35,144.57,78.68,204.64,247.57,134.05,377.22-70.55,129.61-244.97,170.91-389.55,92.22Z"/>
      <path class="cls-2" d="m419.13,88.99c75.34,41.01,127.73,106.48,150.62,178.12-25.34-30.53-58.32-57.97-97.59-79.32-127.59-69.44-273.09-48.48-324.94,46.81-51.85,95.28,9.52,228.8,137.11,298.25,49.86,27.12,102.46,40.48,151.18,40.94-80.78,36.14-182.03,33.55-271.88-15.35C19.06,479.75-41,310.86,29.58,181.22,100.13,51.6,274.55,10.31,419.13,88.99Z"/>
    </g>
  </g>
</svg>